<svg width="456" height="456" xmlns="http://www.w3.org/2000/svg"><circle cx="228" cy="228" r="200" fill="#fff"/><path d="M0 228C0 0 0 0 228 0s228 0 228 228 0 228-228 228S0 456 0 228zm237.62 153.175c21.41-1.711 43.513-7.957 60.294-17.036 16.401-8.874 27.149-16.735 38.762-28.352 8.495-8.5 12.542-13.322 18.347-21.858 12.739-18.739 20.516-38.489 24.587-62.438.282-1.671.282-1.671-32.23-1.671-32.507 0-32.507 0-32.946 1.67a87.88 87.88 0 00-.73 3.006c-1.247 5.698-5.384 14.419-10.374 21.879-9.601 14.344-21.742 25.207-36.43 32.593-10.854 5.457-19.865 7.975-35.338 9.873-8.943 1.094-13.949 2.162-17.856 3.807-7.382 3.106-13.516 8.808-16.991 15.79-3.06 6.154-3.954 9.995-4.225 18.147-.124 3.735-.41 6.79-.635 6.79-1.668 0-16.695-6.612-19.514-8.585-.822-.577-.774-.679 1.044-2.2 1.91-1.597 1.91-1.597 5.218-.018 1.82.866 3.832 1.727 4.475 1.911 1.165.336 1.165.336 1.466-3.067.599-6.811 3.133-14.708 6.447-20.096 1.311-2.129 1.384-2.487 1.384-6.805 0-16.822 8.942-34 23.363-44.886 5.999-4.531 12.256-7.575 33.415-16.26 17.777-7.295 25.474-12.316 31.892-20.804 5.735-7.581 8.89-16.666 9.004-25.92.037-2.986-.21-6.82-.556-8.684-.62-3.34-.62-3.34-1.408.282-1.726 7.928-5.682 14.846-12.191 21.315-7.28 7.24-14.116 11.064-34.089 19.087-6.982 2.804-14.245 5.814-16.145 6.688-3.449 1.589-3.449 1.589-3.449-5.26 0-6.848 0-6.848 3.053-9.111 3.176-2.354 4.844-4.371 6.115-7.397.923-2.188 1.493-12.243.696-12.243-.694 0-4.808 2.516-7.078 4.332-3.052 2.44-4.253 4.94-4.485 9.318-.17 3.266-.296 3.715-1.029 3.715-.684 0-.837-.343-.846-1.893-.02-4.097-2.724-7.34-8.416-10.086-1.576-.759-2.98-1.379-3.118-1.379-.142 0-.242 2.251-.223 5.008.025 4.223.194 5.38 1.063 7.366 1.272 2.9 4.31 5.68 7.102 6.492 2.045.597 2.045.597 2.167 7.582.069 3.842-.034 7.273-.23 7.617-.193.348-2.092 1.693-4.216 2.987-8.626 5.263-15.888 12.166-21.281 20.23-4.725 7.063-6.89 11.795-8.927 19.508-.551 2.096-1.144 3.811-1.314 3.811-.484 0-6.59-4.352-10.022-7.143-3.95-3.214-11.266-10.83-14.545-15.144-9.245-12.17-14.942-25.044-17.82-40.28-.87-4.596-1.008-6.777-.998-15.585.011-9.386.114-10.715 1.206-15.876 3.568-16.824 11.587-31.53 24.332-44.607 3.061-3.14 6.146-6.043 6.859-6.457 1.293-.748 1.293-.748 1.057-7.428-.13-3.676-.558-8.183-.953-10.02-2.266-10.58-7.589-21.011-14.973-29.348-2.958-3.338-9.865-9.602-11.628-10.548-.79-.422-1.647.068-6.538 3.733-23.555 17.642-40.564 38.76-51.702 64.19-4.315 9.85-8.091 23.702-10.146 37.211-.955 6.275-1.088 30.253-.203 36.739 4.076 29.863 13.914 53.793 31.397 76.37 5.172 6.681 16.754 18.466 23.241 23.649 32.45 25.928 71.011 38.728 107.812 35.787zm-35.448-62.342c0-3.216 3.7-10.225 6.163-11.678 2.086-1.23 3.256-.967 6.208 1.407 3.127 2.508 5.643 3.257 9.576 2.85 2.529-.26 2.529-.26 1.311-1.714a300.812 300.812 0 01-2.731-3.331c-1.966-2.432-5.257-3.99-8.449-3.996-2.394-.002-2.394-.002-2.053-1.45.46-1.943.586-6.034.248-7.681-.278-1.337-.278-1.337-2.745 1.114-2.665 2.648-3.52 4.747-3.52 8.651 0 1.636-.306 2.427-1.584 4.102-.871 1.14-1.986 2.861-2.475 3.826-.998 1.954-2.726 8.273-2.404 8.794.41.66 2.455-.082 2.455-.894zm35.84-11.13c-.398-.438-1.36-1.81-2.14-3.05-1.836-2.909-3.802-4.328-7.582-5.482-2.478-.75-3.675-.87-6.348-.627-3.776.342-4.145-.049-1.624-1.73 2.751-1.834 3.9-3.942 3.874-7.104-.042-4.72-.306-7.826-.67-7.826-.77 0-5.263 4.547-5.976 6.05-.569 1.196-.748 2.7-.717 5.924.033 3.175-.13 4.553-.612 5.191-.986 1.305-.828 1.54.683 1.015.749-.263 2.298-.37 3.434-.242 1.697.19 2.341.542 3.575 1.945 3.871 4.407 5.05 5.548 6.199 5.999 1.633.644 5.325 1.108 7.155.9 1.38-.156 1.426-.213.748-.96zm11.013-4.55c-4.33-6.115-7.665-7.83-15.481-7.967-2.314-.041-4.21-.227-4.21-.412 0-.187.976-1.038 2.167-1.893 3.694-2.654 4.663-6.024 3.697-12.865-.295-2.092-.295-2.092-2.404-.559-1.16.845-2.663 2.373-3.34 3.395-1.113 1.684-1.254 2.35-1.48 7.015-.135 2.834-.403 5.496-.595 5.913-.308.67-.183.712 1.078.35 1.945-.558 5.715.285 6.726 1.506a239.299 239.299 0 012.709 3.396c2.66 3.383 4.902 4.453 9.334 4.453 3.453 0 3.453 0 1.8-2.333zm12.374-2.121c.385-.25.446-.436.148-.438-.289-.002-1.528-1.39-2.757-3.078-1.784-2.452-2.746-3.322-4.797-4.325-2.289-1.122-3.143-1.273-8.044-1.436-3.014-.102-5.48-.308-5.479-.463 0-.153.998-.958 2.217-1.79 1.217-.831 2.526-1.983 2.904-2.564 1.15-1.756 1.488-4.961.944-8.988-.5-3.71-.5-3.71-2.617-2.093-3.254 2.485-4.087 4.453-4.175 9.856-.052 3.25-.283 4.903-.833 5.965-.73 1.41-.726 1.454.066 1.097 1.04-.47 3.935-.349 5.718.24.88.29 2.059 1.403 3.313 3.126 1.95 2.676 3.871 4.203 6.162 4.892 1.713.518 6.43.515 7.228 0zm9.501-5.611c2.155-.292 2.155-.292-1.206-3.534-1.924-1.854-4.082-3.498-5.049-3.84-1.074-.38-3.755-.597-7.365-.597-3.122 0-5.679-.057-5.679-.129 0-.07 1.289-1.501 2.868-3.178 3.355-3.574 3.611-4.43 3.155-10.51-.316-4.22-.316-4.22-1.5-3.372-2.265 1.624-4.496 4.184-5.015 5.751-.342 1.038-.424 3.05-.242 5.843.242 3.705.168 4.446-.563 5.646-.84 1.382-.84 1.382 2.206 1.165 3.045-.219 3.045-.219 6.342 3.152 2.032 2.08 3.793 3.483 4.59 3.662.713.156 1.497.357 1.743.446.438.157 1.545.06 5.717-.505zm-95.147-6.54c-1.836-3.045-3.665-8.457-4.347-12.846-.741-4.76-.27-14.886.89-19.144 3.719-13.667 13.705-26.357 28.094-35.697 3.488-2.262 13.275-7.36 20.379-10.615 8.368-3.83 14.027-8.985 16.83-15.326 1.132-2.558 1.132-2.558-6.35-2.29-4.14.145-8.851.574-10.547.959-11.651 2.636-25.575 9.5-35.452 17.476-4.366 3.528-11.218 10.622-14.315 14.82-12.12 16.434-14.747 34.631-7.23 50.109 2.292 4.716 6.829 10.482 10.293 13.073 1.64 1.23 3.044 2.177 3.117 2.103.075-.075-.54-1.253-1.362-2.621zm103.903.103c1.103-.245 2.26-.536 2.574-.648.833-.293-4.09-4.603-6.455-5.651-2.706-1.195-5.943-1.412-10.035-.666-1.897.345-3.45.537-3.45.43 0-.107 1.19-1.436 2.643-2.95 1.453-1.515 2.858-3.313 3.116-4 .6-1.573.565-4.146-.11-7.985-.53-3.013-.53-3.013-2.832-.998-3.244 2.842-3.918 4.8-3.521 10.222.248 3.38.173 4.465-.385 5.543-.382.737-.693 1.425-.693 1.533 0 .108 1.304.09 2.898-.04 2.898-.232 2.898-.232 5.335 2.074 3.725 3.52 6.11 4.208 10.916 3.137zm-93.528-13.57c5.157-9.124 14.13-18.43 23.702-24.585 3.93-2.527 4.612-3.235 3.116-3.235-2.15 0-7.341-4.61-8.527-7.574-.338-.855-.672-1.625-.736-1.711-.268-.357-6.9 4.58-10.02 7.458-6.6 6.083-10.84 12.376-12.927 19.195-1.72 5.617-1.435 12.725.771 19.13.126.364.853-.809 1.67-2.685.798-1.832 2.124-4.53 2.953-5.993zm103.746 5.309c2.424-1.097 2.424-1.097-.446-2.864-1.578-.969-3.544-1.99-4.372-2.264-1.464-.484-7.018-.314-10.187.314-2.052.405-1.853-.27.976-3.349 3.197-3.477 3.639-5.095 2.885-10.582-.567-4.127-.567-4.127-2.16-2.914-4.088 3.118-5.234 5.716-4.525 10.276.659 4.258.613 6.418-.168 7.446-.359.477-.658.98-.668 1.117-.009.137 1.14.17 2.547.069 2.352-.168 2.707-.067 4.341 1.255 4.151 3.35 6.904 3.698 11.778 1.497zm4.826-7.99c1.524-.637 4.995-3.572 4.995-4.228 0-.435-5.93-1.762-7.888-1.762-1.891 0-6.238 1.146-7.142 1.88-1.352 1.106-.422-1.119 1.407-3.367 3.188-3.91 3.54-4.867 3.225-8.735-.15-1.847-.437-3.943-.636-4.654-.362-1.292-.362-1.292-2.862 1.146-3.392 3.314-3.8 4.76-3.016 10.686.581 4.39.57 4.567-.375 6.207-1.236 2.153-1.228 2.2.328 1.613 1.077-.406 1.847-.295 4.565.66 3.898 1.37 5.204 1.47 7.398.555zm2.223-9.572c2.853-.613 5.05-2.486 6.498-5.542.644-1.363 1.172-2.667 1.172-2.895 0-.699-5.87.026-7.915.98-1.907.887-2.352 1.477-4.4 5.809-1.002 2.112-1.002 2.112.736 2.112.957 0 2.716-.207 3.912-.465zm-144.91-12.114c.162-2.022.4-4.175.533-4.788.21-.977-.044-1.262-2.089-2.334-1.281-.667-2.415-1.129-2.524-1.02-.566.566 2.78 11.814 3.516 11.814.15 0 .401-1.653.564-3.672zm2.248-11.75c.436-1.38 1.684-4.2 2.774-6.268 1.224-2.321 1.881-4.07 1.721-4.581-.484-1.524-3.857-4.083-7.73-5.863-2.115-.975-4.178-2.07-4.585-2.438-.68-.616-.764-.368-1.058 3.18-.795 9.511.477 13.92 4.87 16.904 1.247.845 2.48 1.546 2.742 1.556.262.008.832-1.111 1.264-2.492zM380.9 238.8c.496-5.273.294-19.72-.37-26.162-4.282-41.577-24.95-77.122-61.285-105.403-11.495-8.949-30.767-19.347-43.597-23.524-10.872-3.54-23.636-6.168-34.72-7.148-6.812-.602-27.103-.319-31.852.445-7.65 1.23-9.211 1.532-14.25 2.763-14.313 3.496-27.465 8.612-38.854 15.114-2.265 1.296-4.098 2.569-4.075 2.831.025.265 1.38 1.68 3.007 3.15 14.587 13.162 23.01 29.682 24.38 47.812.169 2.236.392 4.066.496 4.066.105 0 1.026-.567 2.051-1.26 8.024-5.435 20.875-10.39 30.745-11.857 5.912-.878 15.532-.88 21.603-.006 24.29 3.5 45.904 19.304 56.62 41.4 2.879 5.937 4.663 11.205 6.097 17.99 1.026 4.864 1.187 6.68 1.197 13.627.013 9.668-.713 14.358-3.55 22.806-1.084 3.235-1.972 5.992-1.972 6.123 0 .133 19.81.24 44.022.24 44.02 0 44.02 0 44.305-3.007zm-74.302-9.573zm-62.12 1.366c13.626-5.099 22.34-10.09 28.512-16.337 10.336-10.465 12.82-22.108 7.25-34.014-1.7-3.633-2.36-4.254-2.37-2.228-.023 3.893-3.156 12.261-6.448 17.22-5.087 7.665-16.254 15.711-29.777 21.46-4.451 1.89-4.451 1.89-4.483 9.274-.027 6.392.058 7.353.636 7.129.366-.14 3.373-1.269 6.68-2.504zm-82.05-6.31c.264-.576 1.364-2.137 2.447-3.466 3.58-4.395 3.563-4.353 2.965-7.783-.488-2.817-1.51-5.963-1.933-5.963-.1 0-.766.553-1.484 1.225a62.222 62.222 0 01-3.155 2.7c-2.442 1.946-3.326 3.748-3.318 6.762.007 2.543.783 4.852 2.205 6.562 1.06 1.28 1.68 1.269 2.273-.038zm-6.867-4.188c-.867-2.786-.553-6.92.716-9.405.98-1.924.98-1.924-.147-3.548a45.67 45.67 0 00-2.158-2.846c-1.03-1.219-1.03-1.219-2.845 1.112-2.605 3.343-3.283 4.882-3.283 7.445 0 2.558.783 4.746 2.124 5.941.866.771 5.345 3.314 5.961 3.384.16.017-.006-.918-.368-2.08zm17.56-27.873c-.115-19.945-.115-19.945-1.675-18.895-1.558 1.05-1.558 1.05-1.675 21.737-.114 20.688-.114 20.688 1.675 18.896 1.79-1.79 1.79-1.79 1.674-21.738zm-5.305 8.165c-.216-5.511-.627-6.008-7.546-9.117-1.371-.617-2.573-1.122-2.67-1.118-.101 0-.246 1.87-.328 4.16-.171 4.82.363 7.257 2.021 9.225 1.048 1.246 1.39 1.382 2.994 1.202.997-.11 2.514.04 3.37.335 2.111.726 2.35.206 2.159-4.688zm90.394.449c1.928-1.112 1.928-1.112 1.735-4.01-.327-4.948-1.874-6.644-8.12-8.931-1.469-.54-3.022-1.283-3.452-1.658-.73-.638-.779-.506-.777 2.173.006 5.344 1.562 8.23 5.305 9.832 2.254.97 2.694 1.45 2.702 2.964.007 1.159-.064 1.169 2.607-.37zm-70.62-1.125c2.084-1.414 2.334-2.346 2.33-8.671 0-4.444-.135-5.37-.997-6.992-1.015-1.905-3.215-3.677-6.79-5.467-1.101-.553-2.354-1.315-2.783-1.688-.738-.65-.78-.334-.78 5.956 0 3.65.197 7.319.434 8.148.65 2.266 2.115 4.136 4.293 5.482 1.713 1.057 1.954 1.4 1.954 2.783 0 .866.153 1.574.342 1.574.187 0 1.085-.505 2-1.125zm8.51-4.885c4.28-2.228 4.28-2.228 4.287-4.344 0-1.162-.082-2.114-.188-2.114-.57 0-7.593 4.564-8.044 5.229-.675.99-1.238 3.798-.72 3.601.213-.08 2.31-1.15 4.665-2.372zm-28.388-5.396c.364-1.444-.107-7.3-.758-9.469-.268-.888-.969-2.213-1.558-2.949-1.075-1.336-1.075-1.336-2.187 0-2.547 3.063-3.06 4.27-3.036 7.125.034 3.56.59 4.532 2.932 5.122 1.035.265 2.286.656 2.774.877 1.361.609 1.52.548 1.835-.706zm92.796-1.054c0-.578.605-1.188 1.757-1.778 3.928-2.002 5.213-5.6 4.162-11.673-.35-2.03-.693-3.747-.764-3.82-.262-.259-4.87 4.148-5.612 5.367-.763 1.255-.763 1.255-1.687-.205-.531-.843-2.394-2.352-4.4-3.569-3.475-2.107-3.475-2.107-3.841 1.211-.738 6.675 1.199 10.765 5.593 11.805 2.53.6 2.993.993 3.003 2.542.002.702.274 1.002.899 1.002.59 0 .89-.296.89-.88zm.548-8.915c0-.855.092-1.206.206-.779.111.429.111 1.131 0 1.559-.112.428-.206.078-.206-.78zm-47.647 8.28c.18-.268.332-1.606.335-2.976.007-2.192.135-2.548 1.074-2.975.587-.267 1.64-1.236 2.338-2.155 1.263-1.658 1.27-1.707 1.266-8.159-.006-8.578-.067-8.704-2.93-5.97-1.246 1.185-2.569 2.742-2.945 3.457-.68 1.302-.68 1.302-1.408.357-.399-.52-1.93-1.755-3.4-2.747-2.673-1.802-2.673-1.802-2.794 4.874-.134 7.3.172 8.589 2.513 10.56 1.294 1.088 2.702 1.322 2.782.461.091-.997.788 2.96.814 4.634.024 1.462.127 1.603 1.028 1.375.55-.14 1.15-.473 1.328-.739zm.467-13.623c-.482-2.997-.459-3.418.228-4.109.717-.725.753-.614.635 2.004-.234 5.28-.322 5.492-.864 2.106zm-19.36 12.842c4.622-1.147 5.43-2.627 5.43-9.94 0-2.862-.152-5.126-.336-5.032-.182.091-1.534.738-3.003 1.43-5.332 2.524-6.47 4.692-5.555 10.585.298 1.91.731 3.476.96 3.476.228 0 1.355-.234 2.504-.52zm37.846-1.709c1.996 0 1.996 0 1.71-2.086-.48-3.494-1.17-4.148-4.41-4.16-1.525-.006-3.525-.185-4.444-.4-1.669-.387-1.669-.387-1.669 3.419 0 3.803 0 3.803 3.405 3.514 1.875-.156 4.307-.287 5.404-.287zm10.095-3.369c.53-.347 1.419-1.438 1.974-2.428.962-1.712.994-2.076.692-7.795-.176-3.302-.442-5.993-.592-5.982-.152.012-1.659.965-3.35 2.12-3.605 2.462-4.808 4.4-5.084 8.191-.189 2.645.374 4.79 1.651 6.288.78.914 2.995.73 4.71-.394zm-53.393-3.363c1.78-3.441 1.106-11.145-1.337-15.3-1.168-1.988-2.846-4.04-3.072-3.755-.547.689-3.737 6.2-4.19 7.243-1.257 2.893-.223 8.297 1.942 10.13 1.256 1.062 4.77 3.062 5.394 3.066.301 0 .869-.62 1.263-1.383zm42.832-3.79c1.055-.284 1.058-.36.293-5.408-.387-2.537-3.431-5.178-8.753-7.594-.608-.278-.364 8.337.28 9.882 1.22 2.915 4.407 4.132 8.18 3.12zm-35.385-4.78c2.905-1.228 3.208-1.994 3.254-8.139.023-3.047-.114-5.635-.302-5.75-.374-.232-4.577 2.111-5.908 3.296-1.816 1.613-2.636 4.067-2.41 7.22.118 1.632.354 3.195.526 3.473.428.694 3.096.637 4.839-.1zm62.2.172c.939-.504 1.798-2.677 1.798-4.546 0-2.43-3.764-7.934-5.425-7.934-.946 0-2.208 2.977-2.47 5.818-.232 2.521.388 4.47 2.007 6.318.748.855 2.81 1.03 4.09.345zm-22.249-4.97c0-.471-.325-1.602-.72-2.513-.477-1.089-.707-2.802-.678-4.997.08-5.64-1.403-8.5-5.387-10.393-4.502-2.138-4.19-2.44-4.154 4.044.027 5.173.12 5.81 1.044 7.104 1.04 1.456 1.416 1.648 4.107 2.103 1.358.228 1.667.534 2.406 2.377.466 1.163 1.135 2.451 1.49 2.864.786.919 1.892.574 1.892-.588zm6.765-2.469c1.675-1.604 2.31-3.766 1.994-6.777-.3-2.835-1.27-5.934-1.925-6.156-.816-.27-4.602 3.021-5.5 4.78-1.556 3.05-1.03 8.97.843 9.512 1.38.4 3.368-.19 4.588-1.359zm-28.518-.527c.65-.247 1.753-1.197 2.45-2.113 1.117-1.461 1.288-2.109 1.426-5.37.085-2.04.034-3.711-.117-3.711-.738 0-2.998 3.121-3.527 4.87-.597 1.974-.597 1.974-1.12-.106-.388-1.538-1.209-2.804-3.156-4.868-2.637-2.79-2.637-2.79-3.87-.118-2.353 5.094-1.756 10.225 1.354 11.641 1.454.66 4.518.554 6.56-.225z" fill="#b92d3a"/></svg>