<svg width="456" height="456" xmlns="http://www.w3.org/2000/svg" fill-rule="evenodd" clip-rule="evenodd" stroke-linejoin="round" stroke-miterlimit="2"><path d="M105.5 281.609c-2.703 0-5-.9-6.893-2.702-1.892-1.848-2.838-4.042-2.838-6.583 0-2.587.946-4.803 2.838-6.651 1.892-1.848 4.19-2.772 6.893-2.772 2.749 0 5.068.924 6.96 2.772 1.938 1.848 2.906 4.064 2.906 6.651 0 2.54-.968 4.735-2.905 6.583-1.893 1.801-4.212 2.702-6.96 2.702zM213.561 280.084h-17.57l-46.291-73.03a32.678 32.678 0 01-2.906-5.75h-.406c.36 2.124.54 6.674.54 13.649v65.131h-15.543v-99.36h18.72l44.737 71.298c1.892 2.957 3.109 4.99 3.65 6.098h.27c-.45-2.633-.676-7.09-.676-13.373v-64.023h15.475zM289.251 280.084h-54.4v-99.36h52.238v13.997h-36.154v28.13h33.316v13.928h-33.316v29.378h38.316zM366.565 194.721h-27.843v85.363h-16.084v-85.363h-27.775v-13.997h71.702z" fill="#fff" fill-rule="nonzero"/></svg>